<?xml version="1.0" encoding="UTF-8" standalone="no" ?>
<svg xmlns="http://www.w3.org/2000/svg" xmlns:xlink="http://www.w3.org/1999/xlink" version="1.1" width="58" height="39" viewBox="0 0 116 78">
	<g transform="matrix(5.73 0 0 5.73 58 39)" id="289def80-08ce-423f-bd57-1faf3e32fa8b">
		<path style="stroke: rgb(0,0,0); stroke-width: 0; stroke-dasharray: none; stroke-linecap: butt; stroke-dashoffset: 0; stroke-linejoin: miter; stroke-miterlimit: 4; fill: rgb(205,60,60); fill-rule: nonzero; opacity: 1;" vector-effect="non-scaling-stroke" transform=" translate(-12, -10.67)" d="M 12 4 C 15.0333 4 17.5583 6.15833 18.125 9.03333 C 20.2917 9.18333 22 10.9667 22 13.1667 C 22 15.4667 20.1333 17.3333 17.8333 17.3333 L 7 17.3333 C 4.24167 17.3333 2 15.0917 2 12.3333 C 2 9.75833 3.95 7.63333 6.45833 7.36667 C 7.5 5.36667 9.59167 4 12 4 Z" stroke-linecap="round"></path>
	</g>
	<g transform="matrix(0.11 0 0 0.11 58 39)">
		<g style="" vector-effect="scaling-stroke">
			<g transform="matrix(0.53 0 0 0.53 0 25.34)">
				<path style="stroke: rgb(222,222,222); stroke-width: 0.009525; stroke-dasharray: none; stroke-linecap: butt; stroke-dashoffset: 0; stroke-linejoin: miter; stroke-miterlimit: 4; fill: rgb(222,222,222); fill-rule: nonzero; opacity: 1;" vector-effect="non-scaling-stroke" transform=" translate(-476.25, -521.7)" d="M 162.45 822.5 C 203.14999999999998 863.199 250.64999999999998 895.199 303.45 917.6 C 358.25 940.801 416.349 952.5 476.25 952.5 C 536.1510000000001 952.5 594.25 940.801 649.05 917.6 C 701.9499999999999 895.2 749.3499999999999 863.301 790.05 822.5 C 830.75 781.801 862.75 734.301 885.151 681.5 C 908.3499999999999 626.699 920.05 568.6 920.05 508.699 C 920.05 448.8 908.3499999999999 390.699 885.151 335.9 C 862.751 283 830.8499999999999 235.59999999999997 790.05 194.89999999999998 C 749.3499999999999 154.2 701.8499999999999 122.19999999999997 649.05 99.79999999999998 C 641.55 96.59999999999998 633.9499999999999 93.69999999999999 626.25 90.89999999999998 L 626.25 244.39999999999998 C 649.65 257.7 671.45 274.29999999999995 691.05 293.9 C 748.4499999999999 351.29999999999995 780.05 427.59999999999997 780.05 508.69899999999996 C 780.05 589.8009999999999 748.4499999999999 666.0989999999999 691.05 723.5 C 633.651 780.9 557.3499999999999 812.5 476.24999999999994 812.5 C 395.15 812.5 318.8499999999999 780.9 261.44999999999993 723.5 C 204.04999999999993 666.1 172.44999999999993 589.8009999999999 172.44999999999993 508.699 C 172.44999999999993 427.6 204.04999999999993 351.3 261.44999999999993 293.9 C 281.04999999999995 274.29999999999995 302.84899999999993 257.7 326.24999999999994 244.39999999999998 L 326.24999999999994 90.9 C 318.6499999999999 93.7 311.04999999999995 96.60000000000001 303.44999999999993 99.80000000000001 C 250.54999999999993 122.20000000000002 203.14999999999992 154.10000000000002 162.44999999999993 194.9 C 121.74999999999993 235.60000000000002 89.74999999999993 283.1 67.34999999999994 335.9 C 44.149999999999935 390.7 32.44999999999994 448.79999999999995 32.44999999999994 508.69899999999996 C 32.44999999999994 568.5989999999999 44.149999999999935 626.699 67.34999999999994 681.5 C 89.75 734.301 121.75 781.801 162.45 822.5 z" stroke-linecap="round"></path>
			</g>
			<g transform="matrix(0.6 0 0 0.47 0 -133.4)">
				<path style="stroke: rgb(222,222,222); stroke-width: 0.009525; stroke-dasharray: none; stroke-linecap: butt; stroke-dashoffset: 0; stroke-linejoin: miter; stroke-miterlimit: 4; fill: rgb(222,222,222); fill-rule: nonzero; opacity: 1;" vector-effect="non-scaling-stroke" transform=" translate(-476.25, -255.9)" d="M 476.25 511.801 C 514.95 511.801 546.25 480.5 546.25 441.801 L 546.25 213 L 546.25 70.4 L 546.25 70 C 546.25 31.299999999999997 514.95 0 476.25 0 C 437.54999999999995 0 406.25 31.3 406.25 70 L 406.25 70.4 L 406.25 213 L 406.25 441.9 C 406.25 480.5 437.55 511.801 476.25 511.801 z" stroke-linecap="round"></path>
			</g>
		</g>
	</g>
</svg>